<svg width="14" height="14" viewBox="0 0 14 14" fill="none" xmlns="http://www.w3.org/2000/svg">
<g clip-path="url(#clip0)">
<path d="M11.6667 13.3583C11.6083 13.3583 11.55 13.3583 11.4917 13.3583C9.625 13.125 7.75833 12.4833 6.18333 11.4917C4.725 10.5583 3.44166 9.27501 2.50833 7.81668C1.45833 6.24168 0.816663 4.37501 0.641663 2.50835C0.641663 2.04168 0.758329 1.57501 1.05 1.22501C1.34166 0.875014 1.75 0.641681 2.21666 0.583348C2.275 0.583348 2.33333 0.583348 2.39166 0.583348H4.14166C5.01666 0.583348 5.775 1.22501 5.89166 2.10001C5.95 2.62501 6.06666 3.15001 6.24166 3.61668C6.475 4.25835 6.3 4.95835 5.83333 5.48335L5.425 5.89168C6.125 6.94168 7 7.87501 8.10833 8.57501L8.51666 8.16668C8.98333 7.70001 9.74166 7.52502 10.3833 7.75835C10.85 7.93335 11.375 8.05001 11.9 8.10835C12.775 8.22501 13.4167 8.98335 13.4167 9.85835V11.6083C13.4167 12.075 13.2417 12.5417 12.8917 12.8333C12.5417 13.125 12.1333 13.3583 11.6667 13.3583ZM4.14166 1.75001H2.39166C2.21666 1.75001 2.04166 1.86668 1.925 1.98335C1.86666 2.10001 1.80833 2.21668 1.80833 2.39168C1.98333 4.08335 2.56666 5.71668 3.5 7.17502C4.375 8.51668 5.48333 9.68335 6.825 10.5C8.28333 11.4333 9.91666 12.0167 11.6083 12.1917C11.8417 12.1917 11.9583 12.1333 12.075 12.0167C12.1917 11.9 12.25 11.7833 12.25 11.6083V9.85835C12.25 9.56668 12.0167 9.33335 11.725 9.27501C11.1417 9.21668 10.5583 9.04168 9.975 8.80835C9.74166 8.75002 9.50833 8.75002 9.33333 8.92502L8.575 9.68335C8.4 9.85835 8.10833 9.91668 7.875 9.80001C6.3 8.92501 5.01666 7.64168 4.14166 6.06668C4.08333 5.83335 4.14166 5.54168 4.31666 5.36668L5.075 4.60835C5.19166 4.49168 5.25 4.20001 5.19166 4.02501C4.95833 3.44168 4.84166 2.85835 4.725 2.27501C4.725 1.98335 4.43333 1.75001 4.14166 1.75001ZM11.0833 5.83335C10.7917 5.83335 10.5583 5.65835 10.5 5.36668C10.325 4.43335 9.56666 3.73335 8.63333 3.50001C8.34166 3.44168 8.10833 3.15001 8.16666 2.80001C8.225 2.50835 8.51666 2.27501 8.86666 2.33335C10.2667 2.62501 11.375 3.67501 11.6083 5.07501C11.6667 5.36668 11.4917 5.71668 11.1417 5.77501C11.1417 5.77501 11.1417 5.83335 11.0833 5.83335ZM13.4167 5.77501C13.125 5.77501 12.8917 5.54168 12.8333 5.25001C12.6 3.09168 10.9083 1.40001 8.69166 1.10835C8.4 1.05001 8.16666 0.758348 8.16666 0.466681C8.16666 0.175014 8.51666 -0.0583191 8.80833 -0.0583191C11.55 0.233348 13.65 2.33335 13.9417 5.07501C14 5.36668 13.7667 5.65835 13.4167 5.71668C13.475 5.77501 13.4167 5.77501 13.4167 5.77501Z" fill="url(#paint0_linear)"/>
</g>
<defs>
<linearGradient id="paint0_linear" x1="7.29613" y1="-0.0583191" x2="7.29613" y2="13.3583" gradientUnits="userSpaceOnUse">
<stop stop-color="#FFD541"/>
<stop offset="1" stop-color="#FFB341"/>
</linearGradient>
<clipPath id="clip0">
<rect width="14" height="14" fill="white"/>
</clipPath>
</defs>
</svg>
