<svg width="14" height="15" viewBox="0 0 14 15" fill="none" xmlns="http://www.w3.org/2000/svg">
<path fill-rule="evenodd" clip-rule="evenodd" d="M6.99999 1.25C5.76231 1.25 4.57533 1.77678 3.70016 2.71447C2.82499 3.65215 2.33332 4.92392 2.33332 6.25C2.33332 8.18629 3.50917 10.0652 4.79846 11.5233C5.43118 12.2389 6.06588 12.8247 6.54305 13.2318C6.72064 13.3833 6.87575 13.5095 6.99999 13.6079C7.12423 13.5095 7.27934 13.3833 7.45693 13.2318C7.9341 12.8247 8.5688 12.2389 9.20152 11.5233C10.4908 10.0652 11.6667 8.18629 11.6667 6.25C11.6667 4.92392 11.175 3.65215 10.2998 2.71447C9.42465 1.77678 8.23767 1.25 6.99999 1.25ZM6.99999 14.375C6.67642 14.895 6.67627 14.8949 6.6761 14.8948L6.67443 14.8936L6.67054 14.8908L6.65718 14.8811C6.64582 14.8729 6.62962 14.861 6.6089 14.8456C6.56747 14.8149 6.50793 14.7701 6.43287 14.712C6.28281 14.5959 6.07037 14.4264 5.8163 14.2096C5.3091 13.7769 4.6313 13.1518 3.95152 12.383C2.61581 10.8723 1.16666 8.68871 1.16666 6.25C1.16666 4.5924 1.78124 3.00268 2.8752 1.83058C3.96916 0.65848 5.45289 0 6.99999 0C8.54709 0 10.0308 0.65848 11.1248 1.83058C12.2187 3.00268 12.8333 4.5924 12.8333 6.25C12.8333 8.68871 11.3842 10.8723 10.0485 12.383C9.36868 13.1518 8.69088 13.7769 8.18368 14.2096C7.92961 14.4264 7.71717 14.5959 7.56711 14.712C7.49205 14.7701 7.43251 14.8149 7.39108 14.8456C7.37036 14.861 7.35416 14.8729 7.3428 14.8811L7.32944 14.8908L7.32555 14.8936L7.32432 14.8945C7.32415 14.8946 7.32357 14.895 6.99999 14.375ZM6.99999 14.375L7.32357 14.895C7.12762 15.035 6.87204 15.0348 6.6761 14.8948L6.99999 14.375Z" fill="url(#paint0_linear)"/>
<path fill-rule="evenodd" clip-rule="evenodd" d="M6.99999 5C6.35566 5 5.83332 5.55964 5.83332 6.25C5.83332 6.94036 6.35566 7.5 6.99999 7.5C7.64432 7.5 8.16666 6.94036 8.16666 6.25C8.16666 5.55964 7.64432 5 6.99999 5ZM4.66666 6.25C4.66666 4.86929 5.71133 3.75 6.99999 3.75C8.28865 3.75 9.33332 4.86929 9.33332 6.25C9.33332 7.63071 8.28865 8.75 6.99999 8.75C5.71133 8.75 4.66666 7.63071 4.66666 6.25Z" fill="url(#paint1_linear)"/>
<defs>
<linearGradient id="paint0_linear" x1="6.99999" y1="0" x2="6.99999" y2="14.9999" gradientUnits="userSpaceOnUse">
<stop stop-color="#FFD541"/>
<stop offset="1" stop-color="#FFB341"/>
</linearGradient>
<linearGradient id="paint1_linear" x1="6.99999" y1="3.75" x2="6.99999" y2="8.75" gradientUnits="userSpaceOnUse">
<stop stop-color="#FFD541"/>
<stop offset="1" stop-color="#FFB341"/>
</linearGradient>
</defs>
</svg>
