<svg width="10" height="18" viewBox="0 0 10 18" fill="none" xmlns="http://www.w3.org/2000/svg">
<path d="M9.49943 0.0037452L7.16526 0C4.5429 0 2.84821 1.73871 2.84821 4.42982V6.47227H0.501303C0.298503 6.47227 0.134277 6.63668 0.134277 6.83949V9.79876C0.134277 10.0016 0.29869 10.1658 0.501303 10.1658H2.84821V17.633C2.84821 17.8358 3.01243 18 3.21523 18H6.27728C6.48008 18 6.64431 17.8356 6.64431 17.633V10.1658H9.38839C9.59119 10.1658 9.75541 10.0016 9.75541 9.79876L9.75654 6.83949C9.75654 6.74211 9.71777 6.64886 9.64905 6.57994C9.58033 6.51103 9.4867 6.47227 9.38932 6.47227H6.64431V4.74086C6.64431 3.90868 6.84261 3.48622 7.92665 3.48622L9.49906 3.48566C9.70167 3.48566 9.86589 3.32124 9.86589 3.11863V0.370775C9.86589 0.168347 9.70186 0.00411972 9.49943 0.0037452Z" fill="url(#paint0_linear)"/>
<defs>
<linearGradient id="paint0_linear" x1="0.134277" y1="10.7308" x2="9.8663" y2="10.7251" gradientUnits="userSpaceOnUse">
<stop stop-color="#0E80D0"/>
<stop offset="1" stop-color="#0E507E"/>
</linearGradient>
</defs>
</svg>
