<svg width="30" height="30" viewBox="0 0 30 30" fill="none" xmlns="http://www.w3.org/2000/svg">
<path d="M1.04481 9.06792C1.62196 9.06792 2.08962 8.60013 2.08962 8.02311V3.56832L8.8189 10.2962C9.02299 10.5001 9.29032 10.6021 9.55765 10.6021C9.82512 10.6021 10.0926 10.5001 10.2965 10.2961C10.7046 9.88803 10.7046 9.22646 10.2964 8.81856L3.56684 2.09054H8.02261C8.59963 2.09054 9.06742 1.62274 9.06742 1.04573C9.06742 0.468712 8.59977 0.000915527 8.02261 0.000915527H1.04481C0.467657 0.000915527 0 0.468712 0 1.04573V8.02325C0 8.60013 0.467657 9.06792 1.04481 9.06792Z" fill="white"/>
<path d="M28.9548 20.9326C28.3777 20.9326 27.91 21.4004 27.91 21.9775V26.4324L20.9736 19.496C20.5654 19.0879 19.904 19.0879 19.496 19.496C19.0879 19.904 19.0879 20.5656 19.496 20.9735L26.4323 27.9098H21.9776C21.4004 27.9098 20.9328 28.3775 20.9328 28.9546C20.9328 29.5316 21.4004 29.9994 21.9776 29.9994H28.955C29.5321 29.9994 29.9998 29.5316 29.9998 28.9546V21.9775C29.9997 21.4004 29.5319 20.9326 28.9548 20.9326Z" fill="white"/>
<path d="M9.02584 19.4961L2.09011 26.4324V21.9776C2.09011 21.4006 1.62245 20.9328 1.0453 20.9328C0.468145 20.9328 0.000488281 21.4006 0.000488281 21.9776V28.955C0.000488281 29.532 0.468145 29.9998 1.0453 29.9998H8.0224C8.59942 29.9998 9.06721 29.532 9.06721 28.955C9.06721 28.378 8.59956 27.9102 8.0224 27.9102H3.56761L10.5035 20.9736C10.9115 20.5656 10.9115 19.904 10.5033 19.496C10.0956 19.0881 9.43401 19.0881 9.02584 19.4961Z" fill="white"/>
<path d="M28.955 0.000305176H21.9776C21.4004 0.000305176 20.9328 0.468102 20.9328 1.04512C20.9328 1.62213 21.4004 2.08993 21.9776 2.08993H26.4325L19.7042 8.81865C19.2962 9.22668 19.2962 9.88826 19.7043 10.2963C19.9083 10.5002 20.1758 10.6022 20.4431 10.6022C20.7104 10.6022 20.9779 10.5001 21.182 10.2961L27.9103 3.56743V8.0225C27.9103 8.59952 28.3779 9.06731 28.9551 9.06731C29.5322 9.06731 29.9999 8.59952 29.9999 8.0225V1.04512C29.9998 0.467962 29.532 0.000305176 28.955 0.000305176Z" fill="white"/>
</svg>
