<?xml version="1.0" encoding="utf-8"?>
<!-- Generator: Adobe Illustrator 23.0.1, SVG Export Plug-In . SVG Version: 6.00 Build 0)  -->
<svg version="1.1" id="Слой_1" xmlns="http://www.w3.org/2000/svg" xmlns:xlink="http://www.w3.org/1999/xlink" x="0px" y="0px"
	 width="18.1px" height="18.1px" viewBox="0 0 18.1 18.1" style="enable-background:new 0 0 18.1 18.1;" xml:space="preserve">
<style type="text/css">
	.st0{clip-path:url(#SVGID_2_);}
	.st1{fill:url(#SVGID_3_);}
	.st2{fill:#FFFFFF;}
</style>
<g>
	<defs>
		<rect id="SVGID_1_" x="0.1" y="0" width="18" height="18"/>
	</defs>
	<clipPath id="SVGID_2_">
		<use xlink:href="#SVGID_1_"  style="overflow:visible;"/>
	</clipPath>
	<g class="st0">
		
			<linearGradient id="SVGID_3_" gradientUnits="userSpaceOnUse" x1="0.6835" y1="3.782" x2="17.4124" y2="18.2608" gradientTransform="matrix(1 0 0 -1 0 20.0574)">
			<stop  offset="0" style="stop-color:#0E80D0"/>
			<stop  offset="1" style="stop-color:#0E507E"/>
		</linearGradient>
		<path class="st1" d="M1.2,1.3c-1.4,1.5-1.1,3-1.1,7.8c0,3.9-0.7,7.9,2.9,8.8c1.1,0.3,11.1,0.3,12.2,0c1.5-0.4,2.7-1.6,2.9-3.7
			c0-0.3,0-9.9,0-10.2c-0.2-2.3-1.6-3.6-3.4-3.8C14.2,0.1,14.1,0,12,0C4.4,0,2.7-0.3,1.2,1.3z"/>
		<path class="st2" d="M9.1,2.4c-2.7,0-5.3-0.2-6.3,2.3C2.3,5.7,2.4,7.1,2.4,9c0,1.7-0.1,3.3,0.3,4.4c1,2.5,3.6,2.3,6.3,2.3
			c2.6,0,5.3,0.3,6.3-2.3c0.4-1.1,0.3-2.4,0.3-4.4c0-2.6,0.1-4.3-1.1-5.5C13.3,2.2,11.6,2.4,9.1,2.4L9.1,2.4z M8.5,3.6
			c5.7,0,6.4-0.6,6,8.1c-0.1,3.1-2.5,2.8-5.4,2.8c-5.3,0-5.4-0.2-5.4-5.4C3.6,3.7,4,3.6,8.5,3.6L8.5,3.6z M12.6,4.7
			c-0.4,0-0.8,0.4-0.8,0.8s0.4,0.8,0.8,0.8c0.4,0,0.8-0.4,0.8-0.8S13,4.7,12.6,4.7z M9.1,5.6C7.2,5.6,5.6,7.1,5.6,9
			c0,1.9,1.5,3.4,3.4,3.4c1.9,0,3.4-1.5,3.4-3.4C12.5,7.1,10.9,5.6,9.1,5.6z M9.1,6.8c2.9,0,2.9,4.4,0,4.4C6.1,11.2,6.1,6.8,9.1,6.8
			z"/>
	</g>
</g>
</svg>
