<svg width="40" height="40" viewBox="0 0 40 40" fill="none" xmlns="http://www.w3.org/2000/svg">
<g clip-path="url(#clip0)">
<path d="M35.5352 15.535C35.5352 27.9745 21.4922 39.4952 21.4922 39.4952C20.6716 40.1684 19.3287 40.1684 18.5082 39.4952C18.5082 39.4952 4.46509 27.9745 4.46509 15.535C4.46524 6.95525 11.4205 0 20.0002 0C28.5799 0 35.5352 6.95525 35.5352 15.535Z" fill="#0A67A8"/>
<path d="M20 23.3506C15.6904 23.3506 12.1843 19.8444 12.1843 15.5349C12.1843 11.2253 15.6905 7.71899 20 7.71899C24.3096 7.71899 27.8158 11.2252 27.8158 15.5347C27.8158 19.8443 24.3097 23.3506 20 23.3506Z" fill="white"/>
</g>
<defs>
<clipPath id="clip0">
<rect width="40" height="40" fill="white"/>
</clipPath>
</defs>
</svg>
