<svg width="21" height="12" viewBox="0 0 21 12" fill="none" xmlns="http://www.w3.org/2000/svg">
<path d="M19.8959 10.6005C19.8717 10.5483 19.8491 10.505 19.8282 10.4703C19.4811 9.84531 18.818 9.07816 17.8391 8.16865L17.8184 8.14783L17.8081 8.13761L17.7976 8.12715H17.7871C17.3428 7.70363 17.0615 7.41887 16.9437 7.27308C16.7281 6.99536 16.6798 6.71424 16.7976 6.42941C16.8809 6.2142 17.1935 5.75972 17.7349 5.06534C18.0196 4.69734 18.2452 4.40241 18.4117 4.1802C19.6129 2.58331 20.1336 1.56288 19.9739 1.1185L19.9118 1.01466C19.8701 0.952141 19.7625 0.894948 19.5892 0.842788C19.4154 0.790738 19.1933 0.78213 18.9225 0.816818L15.9233 0.837536C15.8748 0.82032 15.8054 0.821924 15.715 0.842788C15.6247 0.863652 15.5796 0.874121 15.5796 0.874121L15.5274 0.9002L15.4859 0.931532C15.4512 0.95225 15.413 0.988689 15.3713 1.04078C15.3299 1.09268 15.2952 1.15359 15.2674 1.22301C14.9409 2.06307 14.5697 2.84411 14.153 3.5661C13.8961 3.99662 13.6602 4.36972 13.4447 4.68564C13.2296 5.00144 13.0491 5.23411 12.9034 5.38326C12.7575 5.53255 12.6258 5.65216 12.5076 5.7425C12.3895 5.83289 12.2993 5.87108 12.2369 5.85711C12.1744 5.84314 12.1155 5.82928 12.0597 5.81542C11.9626 5.7529 11.8844 5.66788 11.8255 5.56027C11.7664 5.45267 11.7265 5.31724 11.7057 5.15409C11.685 4.99082 11.6727 4.85039 11.6692 4.73232C11.666 4.6144 11.6675 4.4476 11.6745 4.23239C11.6818 4.01708 11.685 3.8714 11.685 3.79502C11.685 3.53116 11.6901 3.24479 11.7005 2.93585C11.711 2.6269 11.7195 2.38212 11.7266 2.20178C11.7337 2.02127 11.7369 1.83028 11.7369 1.62894C11.7369 1.4276 11.7247 1.26969 11.7005 1.15509C11.6765 1.04063 11.6398 0.929526 11.5914 0.821815C11.5427 0.714213 11.4714 0.630977 11.3779 0.571887C11.2842 0.51287 11.1677 0.466036 11.0291 0.431238C10.6611 0.347965 10.1925 0.302919 9.62305 0.295915C8.33179 0.282055 7.50209 0.365437 7.13413 0.545953C6.98834 0.622223 6.85641 0.726432 6.73845 0.858254C6.61345 1.01105 6.59601 1.09443 6.68625 1.10815C7.10287 1.17055 7.39781 1.31985 7.57139 1.55588L7.63395 1.68095C7.68261 1.77119 7.73119 1.93095 7.77981 2.16002C7.82836 2.38908 7.85969 2.64248 7.87348 2.92005C7.90813 3.42695 7.90813 3.86086 7.87348 4.22182C7.83872 4.58292 7.80589 4.86404 7.77456 5.06538C7.74323 5.26672 7.6964 5.42988 7.63395 5.5548C7.57139 5.67977 7.52978 5.75615 7.50891 5.78387C7.48809 5.81159 7.47072 5.82906 7.45694 5.83592C7.3667 5.8705 7.27285 5.88811 7.17571 5.88811C7.07843 5.88811 6.96047 5.83946 6.82165 5.74221C6.68286 5.64497 6.53882 5.5114 6.38952 5.34128C6.24023 5.17112 6.07186 4.93334 5.88434 4.6279C5.69697 4.32245 5.50256 3.96146 5.30121 3.54491L5.13463 3.24282C5.03049 3.04848 4.88824 2.76551 4.70773 2.39415C4.5271 2.02265 4.36745 1.6633 4.22866 1.31616C4.17318 1.17037 4.08984 1.05938 3.97877 0.982999L3.92664 0.951667C3.89199 0.923946 3.83637 0.89451 3.76006 0.863141C3.68365 0.831809 3.60391 0.80934 3.52053 0.795516L0.667109 0.816234C0.375526 0.816234 0.177685 0.882291 0.0735117 1.01422L0.0318205 1.07663C0.0109931 1.11139 0.000488281 1.16691 0.000488281 1.24332C0.000488281 1.3197 0.0213156 1.41344 0.0630068 1.52444C0.479554 2.50343 0.93254 3.44759 1.42196 4.35707C1.91139 5.26654 2.33669 5.99914 2.69761 6.55422C3.05861 7.10971 3.42657 7.63396 3.8015 8.12674C4.17643 8.61971 4.4246 8.93562 4.54603 9.07441C4.6676 9.21345 4.76309 9.3174 4.83251 9.38682L5.0929 9.63671C5.25952 9.80336 5.5042 10.003 5.82704 10.2355C6.14996 10.4682 6.50745 10.6972 6.8997 10.923C7.29203 11.1485 7.74845 11.3325 8.2692 11.4748C8.78989 11.6172 9.29667 11.6744 9.78964 11.6468H10.9873C11.2302 11.6258 11.4142 11.5494 11.5392 11.4176L11.5807 11.3654C11.6085 11.324 11.6346 11.2596 11.6587 11.173C11.6831 11.0862 11.6952 10.9906 11.6952 10.8866C11.6881 10.5881 11.7108 10.3191 11.7627 10.0796C11.8146 9.8402 11.8738 9.65969 11.94 9.53812C12.0061 9.41665 12.0807 9.31416 12.1638 9.23107C12.247 9.14779 12.3063 9.09735 12.3411 9.07999C12.3757 9.06252 12.4033 9.05066 12.4241 9.04355C12.5908 8.98803 12.7868 9.0418 13.0127 9.2051C13.2384 9.36825 13.45 9.5697 13.648 9.80913C13.8459 10.0488 14.0836 10.3176 14.3613 10.6161C14.6391 10.9147 14.8821 11.1366 15.0903 11.2827L15.2985 11.4076C15.4375 11.491 15.618 11.5674 15.8402 11.6368C16.062 11.7062 16.2564 11.7235 16.4232 11.6888L19.0891 11.6473C19.3528 11.6473 19.558 11.6036 19.7035 11.517C19.8493 11.4302 19.9359 11.3346 19.9639 11.2306C19.9918 11.1265 19.9932 11.0084 19.9692 10.8764C19.9445 10.7446 19.9202 10.6525 19.8959 10.6005Z" fill="url(#paint0_linear)"/>
<defs>
<linearGradient id="paint0_linear" x1="0.000488369" y1="7.09759" x2="20.0028" y2="7.05965" gradientUnits="userSpaceOnUse">
<stop stop-color="#0E80D0"/>
<stop offset="1" stop-color="#0E507E"/>
</linearGradient>
</defs>
</svg>
